<svg id="visual" viewBox="0 0 960 540" width="960" height="540" xmlns="http://www.w3.org/2000/svg" xmlns:xlink="http://www.w3.org/1999/xlink" version="1.1"><path d="M0 397L16 403.3C32 409.7 64 422.3 96 432.3C128 442.3 160 449.7 192 448C224 446.3 256 435.7 288 443C320 450.3 352 475.7 384 477.5C416 479.3 448 457.7 480 444.7C512 431.7 544 427.3 576 432.5C608 437.7 640 452.3 672 462.8C704 473.3 736 479.7 768 479.3C800 479 832 472 864 456.8C896 441.7 928 418.3 944 406.7L960 395L960 541L944 541C928 541 896 541 864 541C832 541 800 541 768 541C736 541 704 541 672 541C640 541 608 541 576 541C544 541 512 541 480 541C448 541 416 541 384 541C352 541 320 541 288 541C256 541 224 541 192 541C160 541 128 541 96 541C64 541 32 541 16 541L0 541Z" fill="#242526" stroke-linecap="round" stroke-linejoin="miter"></path></svg>