<svg id="visual" viewBox="0 0 1920 600" width="1920" height="600" xmlns="http://www.w3.org/2000/svg" xmlns:xlink="http://www.w3.org/1999/xlink" version="1.1"><path d="M0 353L87 337L175 362L262 395L349 359L436 397L524 392L611 399L698 381L785 347L873 400L960 407L1047 352L1135 385L1222 349L1309 359L1396 338L1484 374L1571 409L1658 376L1745 378L1833 368L1920 386L1920 601L1833 601L1745 601L1658 601L1571 601L1484 601L1396 601L1309 601L1222 601L1135 601L1047 601L960 601L873 601L785 601L698 601L611 601L524 601L436 601L349 601L262 601L175 601L87 601L0 601Z" fill="#0076be"></path><path d="M0 394L87 390L175 375L262 381L349 424L436 376L524 383L611 383L698 380L785 397L873 397L960 404L1047 410L1135 389L1222 411L1309 397L1396 367L1484 370L1571 364L1658 374L1745 360L1833 382L1920 418L1920 601L1833 601L1745 601L1658 601L1571 601L1484 601L1396 601L1309 601L1222 601L1135 601L1047 601L960 601L873 601L785 601L698 601L611 601L524 601L436 601L349 601L262 601L175 601L87 601L0 601Z" fill="#007fc0"></path><path d="M0 430L87 389L175 432L262 389L349 378L436 382L524 400L611 434L698 432L785 437L873 436L960 414L1047 407L1135 396L1222 433L1309 380L1396 400L1484 408L1571 405L1658 419L1745 396L1833 380L1920 426L1920 601L1833 601L1745 601L1658 601L1571 601L1484 601L1396 601L1309 601L1222 601L1135 601L1047 601L960 601L873 601L785 601L698 601L611 601L524 601L436 601L349 601L262 601L175 601L87 601L0 601Z" fill="#0087c1"></path><path d="M0 417L87 447L175 429L262 449L349 451L436 400L524 407L611 433L698 432L785 456L873 457L960 407L1047 434L1135 413L1222 457L1309 449L1396 418L1484 447L1571 442L1658 445L1745 456L1833 436L1920 433L1920 601L1833 601L1745 601L1658 601L1571 601L1484 601L1396 601L1309 601L1222 601L1135 601L1047 601L960 601L873 601L785 601L698 601L611 601L524 601L436 601L349 601L262 601L175 601L87 601L0 601Z" fill="#008fc1"></path><path d="M0 452L87 463L175 445L262 447L349 441L436 453L524 441L611 453L698 421L785 432L873 444L960 431L1047 454L1135 460L1222 441L1309 434L1396 450L1484 455L1571 454L1658 423L1745 442L1833 450L1920 420L1920 601L1833 601L1745 601L1658 601L1571 601L1484 601L1396 601L1309 601L1222 601L1135 601L1047 601L960 601L873 601L785 601L698 601L611 601L524 601L436 601L349 601L262 601L175 601L87 601L0 601Z" fill="#0096bf"></path><path d="M0 443L87 472L175 473L262 463L349 478L436 461L524 485L611 465L698 466L785 470L873 477L960 458L1047 463L1135 451L1222 448L1309 447L1396 454L1484 473L1571 488L1658 472L1745 441L1833 489L1920 485L1920 601L1833 601L1745 601L1658 601L1571 601L1484 601L1396 601L1309 601L1222 601L1135 601L1047 601L960 601L873 601L785 601L698 601L611 601L524 601L436 601L349 601L262 601L175 601L87 601L0 601Z" fill="#009ebd"></path><path d="M0 479L87 495L175 483L262 497L349 504L436 465L524 499L611 466L698 491L785 491L873 505L960 461L1047 483L1135 477L1222 478L1309 474L1396 481L1484 484L1571 490L1658 493L1745 486L1833 504L1920 466L1920 601L1833 601L1745 601L1658 601L1571 601L1484 601L1396 601L1309 601L1222 601L1135 601L1047 601L960 601L873 601L785 601L698 601L611 601L524 601L436 601L349 601L262 601L175 601L87 601L0 601Z" fill="#00a4bb"></path><path d="M0 496L87 520L175 510L262 488L349 520L436 484L524 482L611 505L698 491L785 516L873 493L960 504L1047 512L1135 511L1222 488L1309 518L1396 516L1484 488L1571 509L1658 522L1745 515L1833 523L1920 517L1920 601L1833 601L1745 601L1658 601L1571 601L1484 601L1396 601L1309 601L1222 601L1135 601L1047 601L960 601L873 601L785 601L698 601L611 601L524 601L436 601L349 601L262 601L175 601L87 601L0 601Z" fill="#00abb7"></path><path d="M0 527L87 518L175 522L262 526L349 535L436 502L524 512L611 522L698 508L785 512L873 503L960 538L1047 534L1135 523L1222 524L1309 521L1396 537L1484 535L1571 503L1658 516L1745 533L1833 517L1920 527L1920 601L1833 601L1745 601L1658 601L1571 601L1484 601L1396 601L1309 601L1222 601L1135 601L1047 601L960 601L873 601L785 601L698 601L611 601L524 601L436 601L349 601L262 601L175 601L87 601L0 601Z" fill="#00b1b0"></path><path d="M0 531L87 528L175 527L262 548L349 531L436 532L524 537L611 544L698 527L785 545L873 531L960 549L1047 536L1135 550L1222 534L1309 530L1396 533L1484 529L1571 524L1658 542L1745 523L1833 544L1920 541L1920 601L1833 601L1745 601L1658 601L1571 601L1484 601L1396 601L1309 601L1222 601L1135 601L1047 601L960 601L873 601L785 601L698 601L611 601L524 601L436 601L349 601L262 601L175 601L87 601L0 601Z" fill="#00b6a7"></path><path d="M0 563L87 565L175 560L262 548L349 555L436 550L524 551L611 570L698 547L785 565L873 554L960 555L1047 553L1135 560L1222 561L1309 549L1396 567L1484 569L1571 545L1658 545L1745 548L1833 556L1920 566L1920 601L1833 601L1745 601L1658 601L1571 601L1484 601L1396 601L1309 601L1222 601L1135 601L1047 601L960 601L873 601L785 601L698 601L611 601L524 601L436 601L349 601L262 601L175 601L87 601L0 601Z" fill="#2bbb9d"></path><path d="M0 572L87 574L175 568L262 584L349 568L436 567L524 575L611 565L698 582L785 586L873 577L960 574L1047 570L1135 584L1222 580L1309 581L1396 577L1484 569L1571 571L1658 585L1745 565L1833 572L1920 581L1920 601L1833 601L1745 601L1658 601L1571 601L1484 601L1396 601L1309 601L1222 601L1135 601L1047 601L960 601L873 601L785 601L698 601L611 601L524 601L436 601L349 601L262 601L175 601L87 601L0 601Z" fill="#48bf91"></path></svg>