<svg id="visual" viewBox="0 0 1920 600" width="1920" height="600" xmlns="http://www.w3.org/2000/svg" xmlns:xlink="http://www.w3.org/1999/xlink" version="1.1"><path d="M0 429L17.8 433.8C35.7 438.7 71.3 448.3 106.8 447.3C142.3 446.3 177.7 434.7 213.2 414.2C248.7 393.7 284.3 364.3 320 346.5C355.7 328.7 391.3 322.3 426.8 333.5C462.3 344.7 497.7 373.3 533.2 375.8C568.7 378.3 604.3 354.7 640 344.7C675.7 334.7 711.3 338.3 746.8 358C782.3 377.7 817.7 413.3 853.2 425.2C888.7 437 924.3 425 960 412.8C995.7 400.7 1031.3 388.3 1066.8 398.8C1102.3 409.3 1137.7 442.7 1173.2 446.5C1208.7 450.3 1244.3 424.7 1280 398.8C1315.7 373 1351.3 347 1386.8 335.8C1422.3 324.7 1457.7 328.3 1493.2 338.2C1528.7 348 1564.3 364 1600 376.2C1635.7 388.3 1671.3 396.7 1706.8 393.3C1742.3 390 1777.7 375 1813.2 356.8C1848.7 338.7 1884.3 317.3 1902.2 306.7L1920 296L1920 601L1902.2 601C1884.3 601 1848.7 601 1813.2 601C1777.7 601 1742.3 601 1706.8 601C1671.3 601 1635.7 601 1600 601C1564.3 601 1528.7 601 1493.2 601C1457.7 601 1422.3 601 1386.8 601C1351.3 601 1315.7 601 1280 601C1244.3 601 1208.7 601 1173.2 601C1137.7 601 1102.3 601 1066.8 601C1031.3 601 995.7 601 960 601C924.3 601 888.7 601 853.2 601C817.7 601 782.3 601 746.8 601C711.3 601 675.7 601 640 601C604.3 601 568.7 601 533.2 601C497.7 601 462.3 601 426.8 601C391.3 601 355.7 601 320 601C284.3 601 248.7 601 213.2 601C177.7 601 142.3 601 106.8 601C71.3 601 35.7 601 17.8 601L0 601Z" fill="#48bf91"></path><path d="M0 310L17.8 325C35.7 340 71.3 370 106.8 397.7C142.3 425.3 177.7 450.7 213.2 445.2C248.7 439.7 284.3 403.3 320 383C355.7 362.7 391.3 358.3 426.8 378.2C462.3 398 497.7 442 533.2 448C568.7 454 604.3 422 640 422.5C675.7 423 711.3 456 746.8 442.5C782.3 429 817.7 369 853.2 356C888.7 343 924.3 377 960 384.7C995.7 392.3 1031.3 373.7 1066.8 364.3C1102.3 355 1137.7 355 1173.2 369.3C1208.7 383.7 1244.3 412.3 1280 419.3C1315.7 426.3 1351.3 411.7 1386.8 398.3C1422.3 385 1457.7 373 1493.2 365.2C1528.7 357.3 1564.3 353.7 1600 359.3C1635.7 365 1671.3 380 1706.8 393.2C1742.3 406.3 1777.7 417.7 1813.2 417.2C1848.7 416.7 1884.3 404.3 1902.2 398.2L1920 392L1920 601L1902.2 601C1884.3 601 1848.7 601 1813.2 601C1777.7 601 1742.3 601 1706.8 601C1671.3 601 1635.7 601 1600 601C1564.3 601 1528.7 601 1493.2 601C1457.7 601 1422.3 601 1386.8 601C1351.3 601 1315.7 601 1280 601C1244.3 601 1208.7 601 1173.2 601C1137.7 601 1102.3 601 1066.8 601C1031.3 601 995.7 601 960 601C924.3 601 888.7 601 853.2 601C817.7 601 782.3 601 746.8 601C711.3 601 675.7 601 640 601C604.3 601 568.7 601 533.2 601C497.7 601 462.3 601 426.8 601C391.3 601 355.7 601 320 601C284.3 601 248.7 601 213.2 601C177.7 601 142.3 601 106.8 601C71.3 601 35.7 601 17.8 601L0 601Z" fill="#24ba9f"></path><path d="M0 378L17.8 391.8C35.7 405.7 71.3 433.3 106.8 435.3C142.3 437.3 177.7 413.7 213.2 405C248.7 396.3 284.3 402.7 320 415.2C355.7 427.7 391.3 446.3 426.8 459.5C462.3 472.7 497.7 480.3 533.2 480C568.7 479.7 604.3 471.3 640 465.3C675.7 459.3 711.3 455.7 746.8 448.3C782.3 441 817.7 430 853.2 420.3C888.7 410.7 924.3 402.3 960 416.8C995.7 431.3 1031.3 468.7 1066.8 468.8C1102.3 469 1137.7 432 1173.2 422.5C1208.7 413 1244.3 431 1280 422.2C1315.7 413.3 1351.3 377.7 1386.8 366.8C1422.3 356 1457.7 370 1493.2 383.2C1528.7 396.3 1564.3 408.7 1600 421.2C1635.7 433.7 1671.3 446.3 1706.8 439.2C1742.3 432 1777.7 405 1813.2 398.3C1848.7 391.7 1884.3 405.3 1902.2 412.2L1920 419L1920 601L1902.2 601C1884.3 601 1848.7 601 1813.2 601C1777.7 601 1742.3 601 1706.8 601C1671.3 601 1635.7 601 1600 601C1564.3 601 1528.7 601 1493.2 601C1457.7 601 1422.3 601 1386.8 601C1351.3 601 1315.7 601 1280 601C1244.3 601 1208.7 601 1173.2 601C1137.7 601 1102.3 601 1066.8 601C1031.3 601 995.7 601 960 601C924.3 601 888.7 601 853.2 601C817.7 601 782.3 601 746.8 601C711.3 601 675.7 601 640 601C604.3 601 568.7 601 533.2 601C497.7 601 462.3 601 426.8 601C391.3 601 355.7 601 320 601C284.3 601 248.7 601 213.2 601C177.7 601 142.3 601 106.8 601C71.3 601 35.7 601 17.8 601L0 601Z" fill="#00b4ab"></path><path d="M0 487L17.8 471.7C35.7 456.3 71.3 425.7 106.8 424.2C142.3 422.7 177.7 450.3 213.2 470.3C248.7 490.3 284.3 502.7 320 506.2C355.7 509.7 391.3 504.3 426.8 488.7C462.3 473 497.7 447 533.2 433.3C568.7 419.7 604.3 418.3 640 433.7C675.7 449 711.3 481 746.8 485.2C782.3 489.3 817.7 465.7 853.2 442.7C888.7 419.7 924.3 397.3 960 390.5C995.7 383.7 1031.3 392.3 1066.8 405.7C1102.3 419 1137.7 437 1173.2 440.7C1208.7 444.3 1244.3 433.7 1280 439.2C1315.7 444.7 1351.3 466.3 1386.8 457C1422.3 447.7 1457.7 407.3 1493.2 392.3C1528.7 377.3 1564.3 387.7 1600 411.3C1635.7 435 1671.3 472 1706.8 470.5C1742.3 469 1777.7 429 1813.2 423.3C1848.7 417.7 1884.3 446.3 1902.2 460.7L1920 475L1920 601L1902.2 601C1884.3 601 1848.7 601 1813.2 601C1777.7 601 1742.3 601 1706.8 601C1671.3 601 1635.7 601 1600 601C1564.3 601 1528.7 601 1493.2 601C1457.7 601 1422.3 601 1386.8 601C1351.3 601 1315.7 601 1280 601C1244.3 601 1208.7 601 1173.2 601C1137.7 601 1102.3 601 1066.8 601C1031.3 601 995.7 601 960 601C924.3 601 888.7 601 853.2 601C817.7 601 782.3 601 746.8 601C711.3 601 675.7 601 640 601C604.3 601 568.7 601 533.2 601C497.7 601 462.3 601 426.8 601C391.3 601 355.7 601 320 601C284.3 601 248.7 601 213.2 601C177.7 601 142.3 601 106.8 601C71.3 601 35.7 601 17.8 601L0 601Z" fill="#00adb5"></path><path d="M0 398L17.8 418.2C35.7 438.3 71.3 478.7 106.8 491C142.3 503.3 177.7 487.7 213.2 481.8C248.7 476 284.3 480 320 478.7C355.7 477.3 391.3 470.7 426.8 468.2C462.3 465.7 497.7 467.3 533.2 463.3C568.7 459.3 604.3 449.7 640 439.2C675.7 428.7 711.3 417.3 746.8 410.8C782.3 404.3 817.7 402.7 853.2 416.2C888.7 429.7 924.3 458.3 960 478.5C995.7 498.7 1031.3 510.3 1066.8 496.3C1102.3 482.3 1137.7 442.7 1173.2 424.8C1208.7 407 1244.3 411 1280 423.3C1315.7 435.7 1351.3 456.3 1386.8 471C1422.3 485.7 1457.7 494.3 1493.2 499.5C1528.7 504.7 1564.3 506.3 1600 496C1635.7 485.7 1671.3 463.3 1706.8 462.3C1742.3 461.3 1777.7 481.7 1813.2 485.3C1848.7 489 1884.3 476 1902.2 469.5L1920 463L1920 601L1902.2 601C1884.3 601 1848.7 601 1813.2 601C1777.7 601 1742.3 601 1706.8 601C1671.3 601 1635.7 601 1600 601C1564.3 601 1528.7 601 1493.2 601C1457.7 601 1422.3 601 1386.8 601C1351.3 601 1315.7 601 1280 601C1244.3 601 1208.7 601 1173.2 601C1137.7 601 1102.3 601 1066.8 601C1031.3 601 995.7 601 960 601C924.3 601 888.7 601 853.2 601C817.7 601 782.3 601 746.8 601C711.3 601 675.7 601 640 601C604.3 601 568.7 601 533.2 601C497.7 601 462.3 601 426.8 601C391.3 601 355.7 601 320 601C284.3 601 248.7 601 213.2 601C177.7 601 142.3 601 106.8 601C71.3 601 35.7 601 17.8 601L0 601Z" fill="#00a5bb"></path><path d="M0 478L17.8 483.7C35.7 489.3 71.3 500.7 106.8 499.3C142.3 498 177.7 484 213.2 482.2C248.7 480.3 284.3 490.7 320 502C355.7 513.3 391.3 525.7 426.8 528.7C462.3 531.7 497.7 525.3 533.2 513.8C568.7 502.3 604.3 485.7 640 473.3C675.7 461 711.3 453 746.8 453.2C782.3 453.3 817.7 461.7 853.2 473C888.7 484.3 924.3 498.7 960 492.8C995.7 487 1031.3 461 1066.8 450C1102.3 439 1137.7 443 1173.2 457.3C1208.7 471.7 1244.3 496.3 1280 492.2C1315.7 488 1351.3 455 1386.8 445.7C1422.3 436.3 1457.7 450.7 1493.2 470.8C1528.7 491 1564.3 517 1600 526.2C1635.7 535.3 1671.3 527.7 1706.8 521.7C1742.3 515.7 1777.7 511.3 1813.2 497C1848.7 482.7 1884.3 458.3 1902.2 446.2L1920 434L1920 601L1902.2 601C1884.3 601 1848.7 601 1813.2 601C1777.7 601 1742.3 601 1706.8 601C1671.3 601 1635.7 601 1600 601C1564.3 601 1528.7 601 1493.2 601C1457.7 601 1422.3 601 1386.8 601C1351.3 601 1315.7 601 1280 601C1244.3 601 1208.7 601 1173.2 601C1137.7 601 1102.3 601 1066.8 601C1031.3 601 995.7 601 960 601C924.3 601 888.7 601 853.2 601C817.7 601 782.3 601 746.8 601C711.3 601 675.7 601 640 601C604.3 601 568.7 601 533.2 601C497.7 601 462.3 601 426.8 601C391.3 601 355.7 601 320 601C284.3 601 248.7 601 213.2 601C177.7 601 142.3 601 106.8 601C71.3 601 35.7 601 17.8 601L0 601Z" fill="#009dbd"></path><path d="M0 534L17.8 522.3C35.7 510.7 71.3 487.3 106.8 487.2C142.3 487 177.7 510 213.2 508.3C248.7 506.7 284.3 480.3 320 474.3C355.7 468.3 391.3 482.7 426.8 483.7C462.3 484.7 497.7 472.3 533.2 466.7C568.7 461 604.3 462 640 463.3C675.7 464.7 711.3 466.3 746.8 471.7C782.3 477 817.7 486 853.2 496.7C888.7 507.3 924.3 519.7 960 517C995.7 514.3 1031.3 496.7 1066.8 493C1102.3 489.3 1137.7 499.7 1173.2 497C1208.7 494.3 1244.3 478.7 1280 484.5C1315.7 490.3 1351.3 517.7 1386.8 518.3C1422.3 519 1457.7 493 1493.2 477C1528.7 461 1564.3 455 1600 456C1635.7 457 1671.3 465 1706.8 467C1742.3 469 1777.7 465 1813.2 473.5C1848.7 482 1884.3 503 1902.2 513.5L1920 524L1920 601L1902.2 601C1884.3 601 1848.7 601 1813.2 601C1777.7 601 1742.3 601 1706.8 601C1671.3 601 1635.7 601 1600 601C1564.3 601 1528.7 601 1493.2 601C1457.7 601 1422.3 601 1386.8 601C1351.3 601 1315.7 601 1280 601C1244.3 601 1208.7 601 1173.2 601C1137.7 601 1102.3 601 1066.8 601C1031.3 601 995.7 601 960 601C924.3 601 888.7 601 853.2 601C817.7 601 782.3 601 746.8 601C711.3 601 675.7 601 640 601C604.3 601 568.7 601 533.2 601C497.7 601 462.3 601 426.8 601C391.3 601 355.7 601 320 601C284.3 601 248.7 601 213.2 601C177.7 601 142.3 601 106.8 601C71.3 601 35.7 601 17.8 601L0 601Z" fill="#0094c0"></path><path d="M0 522L17.8 527.3C35.7 532.7 71.3 543.3 106.8 541.2C142.3 539 177.7 524 213.2 524.5C248.7 525 284.3 541 320 547C355.7 553 391.3 549 426.8 544.5C462.3 540 497.7 535 533.2 528.2C568.7 521.3 604.3 512.7 640 510.8C675.7 509 711.3 514 746.8 514C782.3 514 817.7 509 853.2 508.2C888.7 507.3 924.3 510.7 960 521.2C995.7 531.7 1031.3 549.3 1066.8 551.7C1102.3 554 1137.7 541 1173.2 533.3C1208.7 525.7 1244.3 523.3 1280 515.7C1315.7 508 1351.3 495 1386.8 502.2C1422.3 509.3 1457.7 536.7 1493.2 541.7C1528.7 546.7 1564.3 529.3 1600 524.3C1635.7 519.3 1671.3 526.7 1706.8 522.5C1742.3 518.3 1777.7 502.7 1813.2 505.8C1848.7 509 1884.3 531 1902.2 542L1920 553L1920 601L1902.2 601C1884.3 601 1848.7 601 1813.2 601C1777.7 601 1742.3 601 1706.8 601C1671.3 601 1635.7 601 1600 601C1564.3 601 1528.7 601 1493.2 601C1457.7 601 1422.3 601 1386.8 601C1351.3 601 1315.7 601 1280 601C1244.3 601 1208.7 601 1173.2 601C1137.7 601 1102.3 601 1066.8 601C1031.3 601 995.7 601 960 601C924.3 601 888.7 601 853.2 601C817.7 601 782.3 601 746.8 601C711.3 601 675.7 601 640 601C604.3 601 568.7 601 533.2 601C497.7 601 462.3 601 426.8 601C391.3 601 355.7 601 320 601C284.3 601 248.7 601 213.2 601C177.7 601 142.3 601 106.8 601C71.3 601 35.7 601 17.8 601L0 601Z" fill="#008bc1"></path><path d="M0 521L17.8 528.7C35.7 536.3 71.3 551.7 106.8 556.8C142.3 562 177.7 557 213.2 547.8C248.7 538.7 284.3 525.3 320 524.8C355.7 524.3 391.3 536.7 426.8 544.8C462.3 553 497.7 557 533.2 551.7C568.7 546.3 604.3 531.7 640 530.3C675.7 529 711.3 541 746.8 545.3C782.3 549.7 817.7 546.3 853.2 548.8C888.7 551.3 924.3 559.7 960 554.5C995.7 549.3 1031.3 530.7 1066.8 531.5C1102.3 532.3 1137.7 552.7 1173.2 552.5C1208.7 552.3 1244.3 531.7 1280 532C1315.7 532.3 1351.3 553.7 1386.8 555.7C1422.3 557.7 1457.7 540.3 1493.2 533.8C1528.7 527.3 1564.3 531.7 1600 539.7C1635.7 547.7 1671.3 559.3 1706.8 559.2C1742.3 559 1777.7 547 1813.2 544.7C1848.7 542.3 1884.3 549.7 1902.2 553.3L1920 557L1920 601L1902.2 601C1884.3 601 1848.7 601 1813.2 601C1777.7 601 1742.3 601 1706.8 601C1671.3 601 1635.7 601 1600 601C1564.3 601 1528.7 601 1493.2 601C1457.7 601 1422.3 601 1386.8 601C1351.3 601 1315.7 601 1280 601C1244.3 601 1208.7 601 1173.2 601C1137.7 601 1102.3 601 1066.8 601C1031.3 601 995.7 601 960 601C924.3 601 888.7 601 853.2 601C817.7 601 782.3 601 746.8 601C711.3 601 675.7 601 640 601C604.3 601 568.7 601 533.2 601C497.7 601 462.3 601 426.8 601C391.3 601 355.7 601 320 601C284.3 601 248.7 601 213.2 601C177.7 601 142.3 601 106.8 601C71.3 601 35.7 601 17.8 601L0 601Z" fill="#0081c1"></path><path d="M0 567L17.8 567.2C35.7 567.3 71.3 567.7 106.8 568C142.3 568.3 177.7 568.7 213.2 570.5C248.7 572.3 284.3 575.7 320 575.3C355.7 575 391.3 571 426.8 564.7C462.3 558.3 497.7 549.7 533.2 552.2C568.7 554.7 604.3 568.3 640 568.5C675.7 568.7 711.3 555.3 746.8 548.7C782.3 542 817.7 542 853.2 546C888.7 550 924.3 558 960 561.2C995.7 564.3 1031.3 562.7 1066.8 566.3C1102.3 570 1137.7 579 1173.2 577C1208.7 575 1244.3 562 1280 562.7C1315.7 563.3 1351.3 577.7 1386.8 582.2C1422.3 586.7 1457.7 581.3 1493.2 580C1528.7 578.7 1564.3 581.3 1600 578.2C1635.7 575 1671.3 566 1706.8 566.5C1742.3 567 1777.7 577 1813.2 581.5C1848.7 586 1884.3 585 1902.2 584.5L1920 584L1920 601L1902.2 601C1884.3 601 1848.7 601 1813.2 601C1777.7 601 1742.3 601 1706.8 601C1671.3 601 1635.7 601 1600 601C1564.3 601 1528.7 601 1493.2 601C1457.7 601 1422.3 601 1386.8 601C1351.3 601 1315.7 601 1280 601C1244.3 601 1208.7 601 1173.2 601C1137.7 601 1102.3 601 1066.8 601C1031.3 601 995.7 601 960 601C924.3 601 888.7 601 853.2 601C817.7 601 782.3 601 746.8 601C711.3 601 675.7 601 640 601C604.3 601 568.7 601 533.2 601C497.7 601 462.3 601 426.8 601C391.3 601 355.7 601 320 601C284.3 601 248.7 601 213.2 601C177.7 601 142.3 601 106.8 601C71.3 601 35.7 601 17.8 601L0 601Z" fill="#0076be"></path></svg>