<svg id="visual" viewBox="0 0 1920 600" width="1920" height="600" xmlns="http://www.w3.org/2000/svg" xmlns:xlink="http://www.w3.org/1999/xlink" version="1.1"><rect x="0" y="0" width="1920" height="600" fill="#4db4d7"></rect><path d="M0 153L13.3 184.5C26.7 216 53.3 279 80 280.7C106.7 282.3 133.3 222.7 160 200.3C186.7 178 213.3 193 240 232.7C266.7 272.3 293.3 336.7 320 344.8C346.7 353 373.3 305 400 308.3C426.7 311.7 453.3 366.3 480 353.2C506.7 340 533.3 259 560 208.2C586.7 157.3 613.3 136.7 640 130.7C666.7 124.7 693.3 133.3 720 139.3C746.7 145.3 773.3 148.7 800 169.3C826.7 190 853.3 228 880 234.5C906.7 241 933.3 216 960 220.7C986.7 225.3 1013.3 259.7 1040 283.7C1066.7 307.7 1093.3 321.3 1120 302C1146.7 282.7 1173.3 230.3 1200 199.5C1226.7 168.7 1253.3 159.3 1280 162.7C1306.7 166 1333.3 182 1360 177.3C1386.7 172.7 1413.3 147.3 1440 156.5C1466.7 165.7 1493.3 209.3 1520 231.5C1546.7 253.7 1573.3 254.3 1600 279.5C1626.7 304.7 1653.3 354.3 1680 355.8C1706.7 357.3 1733.3 310.7 1760 274.3C1786.7 238 1813.3 212 1840 208.8C1866.7 205.7 1893.3 225.3 1906.7 235.2L1920 245L1920 0L1906.7 0C1893.3 0 1866.7 0 1840 0C1813.3 0 1786.7 0 1760 0C1733.3 0 1706.7 0 1680 0C1653.3 0 1626.7 0 1600 0C1573.3 0 1546.7 0 1520 0C1493.3 0 1466.7 0 1440 0C1413.3 0 1386.7 0 1360 0C1333.3 0 1306.7 0 1280 0C1253.3 0 1226.7 0 1200 0C1173.3 0 1146.7 0 1120 0C1093.3 0 1066.7 0 1040 0C1013.3 0 986.7 0 960 0C933.3 0 906.7 0 880 0C853.3 0 826.7 0 800 0C773.3 0 746.7 0 720 0C693.3 0 666.7 0 640 0C613.3 0 586.7 0 560 0C533.3 0 506.7 0 480 0C453.3 0 426.7 0 400 0C373.3 0 346.7 0 320 0C293.3 0 266.7 0 240 0C213.3 0 186.7 0 160 0C133.3 0 106.7 0 80 0C53.3 0 26.7 0 13.3 0L0 0Z" fill="#242526" stroke-linecap="round" stroke-linejoin="miter"></path></svg>