<svg id="visual" viewBox="0 0 1920 600" width="1920" height="600" xmlns="http://www.w3.org/2000/svg" xmlns:xlink="http://www.w3.org/1999/xlink" version="1.1"><path d="M0 441L32 448C64 455 128 469 192 480.2C256 491.3 320 499.7 384 498C448 496.3 512 484.7 576 492.8C640 501 704 529 768 531C832 533 896 509 960 494.7C1024 480.3 1088 475.7 1152 481.3C1216 487 1280 503 1344 514.5C1408 526 1472 533 1536 532.7C1600 532.3 1664 524.7 1728 507.8C1792 491 1856 465 1888 452L1920 439L1920 601L1888 601C1856 601 1792 601 1728 601C1664 601 1600 601 1536 601C1472 601 1408 601 1344 601C1280 601 1216 601 1152 601C1088 601 1024 601 960 601C896 601 832 601 768 601C704 601 640 601 576 601C512 601 448 601 384 601C320 601 256 601 192 601C128 601 64 601 32 601L0 601Z" fill="#242526" stroke-linecap="round" stroke-linejoin="miter"></path></svg>