<svg id="visual" viewBox="0 0 1920 600" width="1920" height="600" xmlns="http://www.w3.org/2000/svg" xmlns:xlink="http://www.w3.org/1999/xlink" version="1.1"><path d="M0 445L13.3 413.5C26.7 382 53.3 319 80 317.3C106.7 315.7 133.3 375.3 160 397.7C186.7 420 213.3 405 240 365.3C266.7 325.7 293.3 261.3 320 253.2C346.7 245 373.3 293 400 289.7C426.7 286.3 453.3 231.7 480 244.8C506.7 258 533.3 339 560 389.8C586.7 440.7 613.3 461.3 640 467.3C666.7 473.3 693.3 464.7 720 458.7C746.7 452.7 773.3 449.3 800 428.7C826.7 408 853.3 370 880 363.5C906.7 357 933.3 382 960 377.3C986.7 372.7 1013.3 338.3 1040 314.3C1066.7 290.3 1093.3 276.7 1120 296C1146.7 315.3 1173.3 367.7 1200 398.5C1226.7 429.3 1253.3 438.7 1280 435.3C1306.7 432 1333.3 416 1360 420.7C1386.7 425.3 1413.3 450.7 1440 441.5C1466.7 432.3 1493.3 388.7 1520 366.5C1546.7 344.3 1573.3 343.7 1600 318.5C1626.7 293.3 1653.3 243.7 1680 242.2C1706.7 240.7 1733.3 287.3 1760 323.7C1786.7 360 1813.3 386 1840 389.2C1866.7 392.3 1893.3 372.7 1906.7 362.8L1920 353L1920 601L1906.7 601C1893.3 601 1866.7 601 1840 601C1813.3 601 1786.7 601 1760 601C1733.3 601 1706.7 601 1680 601C1653.3 601 1626.7 601 1600 601C1573.3 601 1546.7 601 1520 601C1493.3 601 1466.7 601 1440 601C1413.3 601 1386.7 601 1360 601C1333.3 601 1306.7 601 1280 601C1253.3 601 1226.7 601 1200 601C1173.3 601 1146.7 601 1120 601C1093.3 601 1066.7 601 1040 601C1013.3 601 986.7 601 960 601C933.3 601 906.7 601 880 601C853.3 601 826.7 601 800 601C773.3 601 746.7 601 720 601C693.3 601 666.7 601 640 601C613.3 601 586.7 601 560 601C533.3 601 506.7 601 480 601C453.3 601 426.7 601 400 601C373.3 601 346.7 601 320 601C293.3 601 266.7 601 240 601C213.3 601 186.7 601 160 601C133.3 601 106.7 601 80 601C53.3 601 26.7 601 13.3 601L0 601Z" fill="#4db4d7" stroke-linecap="round" stroke-linejoin="miter"></path></svg>